Coordinates
version=1
nRows=43
nColumns=12
inDegrees=yes

Units are S.I. units (second, meters, Newtons, ...)
Angles are in degrees

endheader
time	SC_y	SC_z	SC_x	AC_y	AC_z	AC_x	GH_y	GH_z	GH_yy	EL_x	PS_y
       0.0              -14.66          6.631          65.03          64.58         -8.803          8.897          90.12          79.68          -96.3          57.17          79.57
   0.02563              -14.67           6.63          65.02          64.57         -8.804          8.893          90.13          79.67         -96.27          57.18          79.57
   0.05126              -14.67          6.629          65.02          64.57         -8.805          8.888          90.13          79.66         -96.24          57.19          79.57
    0.0769              -14.68          6.627          65.02          64.56         -8.806          8.883          90.13          79.64          -96.2          57.19          79.57
    0.1025              -14.69          6.626          65.02          64.56         -8.807          8.878          90.13          79.63         -96.16           57.2          79.57
    0.1282               -14.7          6.624          65.01          64.55         -8.809          8.873          90.14          79.61         -96.11          57.21          79.57
    0.1538               -14.7          6.623          65.01          64.55          -8.81          8.867          90.14           79.6         -96.07          57.22          79.57
    0.1794              -14.71          6.621          65.01          64.54         -8.812          8.861          90.14          79.58         -96.02          57.22          79.57
    0.2051              -14.72          6.619          65.01          64.54         -8.813          8.854          90.14          79.56         -95.97          57.23          79.57
    0.2307              -14.73          6.617           65.0          64.53         -8.815          8.847          90.15          79.54         -95.91          57.24          79.58
    0.2563              -14.74          6.615           65.0          64.52         -8.817           8.84          90.15          79.52         -95.85          57.25          79.58
     0.282              -14.76          6.613           65.0          64.52         -8.819          8.831          90.16           79.5         -95.79          57.26          79.58
    0.3076              -14.77           6.61          64.99          64.51         -8.821          8.823          90.16          79.47         -95.72          57.28          79.58
    0.3332              -14.78          6.607          64.99           64.5         -8.823          8.813          90.16          79.44         -95.64          57.29          79.58
    0.3589               -14.8          6.604          64.98          64.49         -8.825          8.803          90.17          79.41         -95.56           57.3          79.58
    0.3845              -14.82          6.601          64.98          64.48         -8.828          8.792          90.17          79.38         -95.47          57.32          79.58
    0.4101              -14.83          6.598          64.97          64.47         -8.831          8.779          90.18          79.35         -95.37          57.34          79.58
    0.4358              -14.85          6.594          64.97          64.46         -8.834          8.766          90.19          79.31         -95.27          57.35          79.58
    0.4614              -14.88           6.59          64.96          64.44         -8.837          8.752          90.19          79.27         -95.15          57.37          79.58
     0.487               -14.9          6.585          64.95          64.43         -8.841          8.736           90.2          79.22         -95.03           57.4          79.58
    0.5126              -14.93          6.581          64.95          64.41         -8.845          8.718          90.21          79.17         -94.89          57.42          79.58
    0.5383              -14.95          6.575          64.94           64.4          -8.85          8.699          90.22          79.12         -94.74          57.45          79.59
    0.5639              -14.99          6.569          64.93          64.38         -8.855          8.678          90.23          79.06         -94.57          57.48          79.59
    0.5895              -15.02          6.562          64.92          64.36          -8.86          8.655          90.24          78.99         -94.39          57.51          79.59
    0.6152              -15.06          6.555          64.91          64.33         -8.867          8.629          90.25          78.91         -94.18          57.54          79.59
    0.6408               -15.1          6.547          64.89          64.31         -8.874            8.6          90.26          78.83         -93.95          57.58          79.59
    0.6664              -15.15          6.537          64.88          64.28         -8.881          8.567          90.28          78.74         -93.69          57.63           79.6
    0.6921              -15.21          6.527          64.86          64.24          -8.89          8.531           90.3          78.63          -93.4          57.68           79.6
    0.7177              -15.27          6.515          64.84          64.21           -8.9          8.489          90.32          78.51         -93.07          57.74           79.6
    0.7433              -15.34          6.502          64.82          64.16         -8.911          8.442          90.34          78.38          -92.7           57.8           79.6
     0.769              -15.42          6.487           64.8          64.11         -8.924          8.389          90.36          78.22         -92.27          57.87          79.61
    0.7946              -15.51          6.469          64.77          64.06         -8.938          8.327          90.39          78.05         -91.79          57.96          79.61
    0.8202              -15.62          6.449          64.74          63.99         -8.955          8.256          90.42          77.84         -91.22          58.06          79.62
    0.8459              -15.74          6.426           64.7          63.92         -8.975          8.173          90.46          77.61         -90.57          58.17          79.62
    0.8715              -15.88          6.398          64.66          63.83         -8.998          8.077          90.51          77.33          -89.8           58.3          79.63
    0.8971              -16.05          6.366          64.61          63.73         -9.025          7.963          90.56           77.0          -88.9          58.46          79.64
    0.9228              -16.25          6.327          64.55           63.6         -9.057          7.828          90.63          76.61         -87.83          58.65          79.65
    0.9484               -16.5          6.281          64.47          63.46         -9.095          7.666           90.7          76.15         -86.54          58.87          79.66
     0.974              -16.79          6.225          64.39          63.28         -9.142          7.469          90.79          75.58         -84.98          59.14          79.68
    0.9997              -17.15          6.157          64.28          63.06         -9.199           7.23          90.91          74.89         -83.08          59.47          79.69
     1.025              -17.59          6.073          64.15          62.79         -9.269          6.934          91.04          74.05         -80.74          59.88          79.72
     1.051              -18.14          5.968          63.98          62.46         -9.356          6.565          91.22          72.99         -77.81          60.39          79.74
     1.077              -18.83          5.836          63.78          62.03         -9.466            6.1          91.44          71.65         -74.12          61.03          79.78
